<?xml version="1.0" encoding="UTF-8" standalone="no"?>
<!-- Created with Inkscape (http://www.inkscape.org/) -->

<svg
   version="1.1"
   id="svg9"
   width="500"
   height="250"
   viewBox="0 0 500 250"
   sodipodi:docname="nosso-brasil.svg"
   inkscape:export-filename="nosso-brasil.jpeg.png"
   inkscape:export-xdpi="96"
   inkscape:export-ydpi="96"
   inkscape:version="1.2.1 (9c6d41e410, 2022-07-14)"
   xmlns:inkscape="http://www.inkscape.org/namespaces/inkscape"
   xmlns:sodipodi="http://sodipodi.sourceforge.net/DTD/sodipodi-0.dtd"
   xmlns="http://www.w3.org/2000/svg"
   xmlns:svg="http://www.w3.org/2000/svg">
  <defs
     id="defs13" />
  <sodipodi:namedview
     id="namedview11"
     pagecolor="#ffffff"
     bordercolor="#000000"
     borderopacity="0.25"
     inkscape:showpageshadow="2"
     inkscape:pageopacity="0.0"
     inkscape:pagecheckerboard="0"
     inkscape:deskcolor="#d1d1d1"
     showgrid="false"
     inkscape:zoom="1.0175305"
     inkscape:cx="160.19176"
     inkscape:cy="364.60825"
     inkscape:window-width="1920"
     inkscape:window-height="1017"
     inkscape:window-x="-8"
     inkscape:window-y="-8"
     inkscape:window-maximized="1"
     inkscape:current-layer="g15" />
  <g
     inkscape:groupmode="layer"
     inkscape:label="Image"
     id="g15">
    <path
       style="fill:#1B4311;stroke-width:3.71532"
       d="m 102.28556,213.5185 c -6.027948,-8.64804 -10.09542,-16.96396 -9.038831,-18.47979 1.056589,-1.51587 4.915595,2.70554 8.575571,9.38087 13.31,24.27577 40.6282,23.75788 44.05095,-0.8351 2.39882,-17.23587 -9.77128,-35.29012 -19.00795,-28.19812 -11.98907,9.20525 -13.93536,4.9263 -3.97238,-8.73332 11.98459,-16.43132 12.86817,-40.9973 1.55797,-43.31567 -10.51763,-2.15591 -14.26997,9.39386 -14.04908,43.24321 0.22362,34.26415 -3.96857,45.38348 -7.25159,19.23415 -4.665806,-37.16327 -8.798557,-51.4593 -12.676521,-43.85069 -13.550817,26.58688 -57.114476,22.90853 -49.860921,-4.21006 2.040484,-7.62868 2.542054,-7.40823 6.016833,2.64444 6.478483,18.74252 24.756908,17.71528 37.799101,-2.12427 10.446569,-15.89114 10.446569,-15.89114 15.289053,-5.97244 3.524675,7.21945 4.842485,8.02037 4.842485,2.94304 0,-18.51306 28.52264,-30.06894 37.19871,-15.07097 3.64653,6.30361 3.17959,23.3452 -1.03755,37.86669 -1.32346,4.55727 1.24379,8.93712 8.09141,13.80428 8.26955,5.87784 10.02994,9.70175 10.02994,21.78703 0,19.13219 12.10043,29.11163 18.96587,15.64155 6.12779,-12.02281 5.31246,-23.47052 -1.90567,-26.75726 -6.99362,-3.18449 -8.399,-17.86468 -2.0451,-21.3627 5.21347,-2.87019 9.66083,1.26315 12.26921,11.40285 1.73336,6.73831 4.49573,7.42265 19.6488,4.8676 17.53997,-2.95753 17.62022,-2.91721 15.3939,7.73477 -3.85878,18.46278 -3.54451,23.67151 1.51953,25.18363 3.61275,1.07874 4.91129,-2.04914 4.91129,-11.83019 0,-33.25193 42.06398,-41.50387 45.69092,-8.96341 1.16079,10.41452 3.65117,17.44307 6.18053,17.44307 6.95627,0 11.61127,-11.67296 9.49013,-23.79763 -2.56705,-14.67371 28.69446,5.97417 34.52516,22.80347 3.8868,11.21851 10.27827,5.30752 11.91839,-11.02243 1.55702,-15.50198 13.53323,-12.24179 18.57083,5.0554 3.46398,11.89394 6.46939,15.86139 12.01537,15.86139 10.52842,0 11.57678,-3.20852 6.61497,-20.2455 -8.93759,-30.68844 -2.82251,-68.75667 11.04475,-68.75667 19.58834,0 23.79072,30.44405 9.12809,66.12855 -7.81765,19.02588 -3.80183,27.32375 13.22352,27.32375 8.18546,0 11.50652,1.63462 10.07456,4.95865 -1.3983,3.24589 -6.55073,3.83021 -14.9169,1.69159 -7.0294,-1.79689 -20.6575,-3.52766 -30.28463,-3.84613 -12.48684,-0.41307 -19.39128,-3.02726 -24.08873,-9.12051 -6.17659,-8.01194 -6.82566,-8.06891 -10.46992,-0.91885 -7.35101,14.4228 -39.44222,10.46022 -39.44222,-4.87026 0,-5.45715 0.88997,-5.72502 4.54849,-1.36901 2.50166,2.97866 6.23412,4.6096 8.29437,3.62438 2.10963,-1.00888 -0.5547,-6.18474 -6.09943,-11.84901 -7.24286,-7.39909 -9.84531,-8.39542 -9.84531,-3.7692 0,16.60494 -18.50141,26.17888 -31.42077,16.2593 -4.34912,-3.33929 -7.37373,-3.35908 -10.13913,-0.0664 -14.0141,16.68607 -53.32546,4.22898 -50.62445,-16.04203 1.11876,-8.39616 0.026,-10.28338 -5.95429,-10.28338 -4.95096,0 -7.32451,2.56329 -7.32451,7.91003 0,20.36195 -22.88716,38.5162 -29.42488,23.33997 -1.12165,-2.60371 -6.47044,-0.81674 -13.32001,4.4501 -17.74887,13.64768 -30.34626,11.63272 -43.27993,-6.92271 z m 150.93972,-16.53956 c 1.51856,-5.67809 1.49766,-11.81083 -0.0481,-14.1662 -3.42671,-5.22091 -4.55122,-3.331 -7.10499,11.94114 -2.49308,14.90908 3.28069,16.70507 7.15326,2.22506 z m 142.76964,-44.23848 c 0.077,-6.58635 -1.13822,-13.10842 -2.70035,-14.49352 -3.54368,-3.14207 -10.40896,40.93992 -7.44682,47.81601 2.77626,6.44464 9.95811,-17.13996 10.14717,-33.32249 z M 182.10668,173.8785 c 0,-1.07934 -1.39583,-3.20007 -3.10187,-4.71277 -1.70601,-1.51265 -3.10185,-0.62956 -3.10185,1.96244 0,2.592 1.39584,4.71274 3.10185,4.71274 1.70604,0 3.10187,-0.8831 3.10187,-1.96241 z M 29.027035,191.29267 c 1.000179,-3.73933 4.71124,-9.01984 8.246806,-11.73447 6.423675,-4.93215 6.423098,-4.94173 -0.80435,-13.33798 -10.674192,-12.40038 -5.372678,-15.14574 5.984671,-3.09911 9.724297,10.31446 9.724297,10.31446 -0.531627,22.5227 -11.619419,13.83128 -15.543916,15.5504 -12.8955,5.64886 z M 411.6441,189.71003 c 0,-2.73289 3.48959,-4.96889 7.75464,-4.96889 4.40893,0 7.42007,-2.31272 6.97918,-5.36037 -0.4265,-2.94818 0.85301,-5.45137 2.84339,-5.56264 6.3521,-0.35505 8.76651,-7.21839 4.04596,-11.50138 -3.70957,-3.36571 -3.40269,-4.17921 1.64076,-4.34967 5.90793,-0.19959 5.93704,-0.49977 0.61107,-6.29384 -3.92479,-4.26971 -4.4341,-6.63823 -1.70776,-7.94201 2.60626,-1.24635 2.14992,-2.81298 -1.38653,-4.7599 -3.486,-1.91914 -5.27142,-0.68848 -5.27142,3.63343 0,3.59451 -1.41235,6.53548 -3.13853,6.53548 -2.7117,0 -1.11425,-34.39828 1.83018,-39.40886 1.65005,-2.80795 30.31108,19.22003 31.4083,24.13946 0.58343,2.61583 -2.4608,7.45996 -6.76493,10.76473 -9.17005,7.04081 -9.96596,11.94988 -2.39748,14.78743 5.10392,1.91354 5.09926,2.066 -0.0775,2.55135 -3.40437,0.31907 -6.16541,5.24772 -7.23396,12.91297 -1.00115,7.18154 -3.90463,12.67727 -6.90162,13.06357 -2.84541,0.36673 -9.01202,2.03058 -13.70357,3.69743 -5.47381,1.94475 -8.53012,1.25026 -8.53012,-1.93829 z m 33.72305,-58.95553 c -8.12261,-8.96137 -15.11191,-10.74888 -15.11191,-3.86478 0,2.44755 1.94443,4.4501 4.32093,4.4501 2.37651,0 5.11532,2.97005 6.0863,6.60013 1.07231,4.00903 3.78649,5.48746 6.91363,3.76587 4.46453,-2.45787 4.17117,-3.91229 -2.20895,-10.95132 z M 23.111938,171.01463 c -2.999049,-2.50559 -7.074802,-3.11748 -9.05723,-1.3597 -2.36741,2.0991 -2.964362,0.80295 -1.739412,-3.77674 1.025755,-3.83495 0.01558,-10.60113 -2.244708,-15.03595 -2.7395023,-5.37493 -3.225081,-11.40145 -1.456406,-18.07544 1.650134,-6.22669 1.439225,-11.08862 -0.5578317,-12.85933 -1.905923,-1.68992 -0.527619,-5.54383 3.3909407,-9.48151 3.631148,-3.64885 6.144994,-9.94807 5.586328,-13.99822 -0.558667,-4.050188 1.807293,-9.416652 5.257688,-11.925487 3.450397,-2.508824 6.724436,-9.071281 7.275645,-14.583228 0.636249,-6.36236 2.838652,-9.571544 6.031603,-8.788823 2.766174,0.678103 6.513609,-2.93383 8.327635,-8.026553 1.814028,-5.092711 5.079036,-8.407834 7.25558,-7.366974 2.176541,1.04086 5.879905,-0.39664 8.229694,-3.19443 2.955038,-3.518444 4.89631,-3.63847 6.296023,-0.389294 1.113026,2.583717 -0.507502,6.039354 -3.601169,7.679204 -3.093668,1.63985 -6.322771,4.12889 -7.17578,5.53121 -0.853011,1.402283 -4.101427,4.552199 -7.218707,6.999743 -3.117276,2.447544 -5.472044,6.205094 -5.232816,8.350058 0.239214,2.144999 -2.793617,6.267246 -6.73965,9.160539 -3.946037,2.893316 -6.980746,8.647873 -6.743799,12.78794 0.236948,4.140065 -1.358506,7.527415 -3.545455,7.527415 -6.393208,0 -7.975,12.70441 -2.184776,17.5474 4.650062,3.88936 4.444237,4.44908 -1.679759,4.56782 -4.093889,0.0794 -6.979178,2.89493 -6.979178,6.81047 0,3.67135 2.360538,6.67517 5.245643,6.67517 4.564403,0 4.463695,0.82561 -0.775466,6.35735 -5.611303,5.92464 -5.651655,6.56279 -0.592856,9.37631 2.985537,1.66045 5.428249,5.80859 5.428249,9.21806 0,3.40948 2.011376,6.19906 4.469724,6.19906 2.458347,0 5.332396,2.00255 6.386776,4.4501 2.470517,5.73487 -4.615694,5.50622 -11.65653,-0.37617 z m 310.985752,0.37617 c -3.66424,-3.24893 -3.81684,-5.20443 -0.74954,-9.60493 2.99553,-4.29756 4.67856,-4.33875 7.57361,-0.18523 5.03229,7.21962 -0.60381,15.30555 -6.82407,9.79023 z m 77.51394,-74.57776 c -8.92811,-6.391908 -10.82222,-10.199561 -10.8138,-21.738121 0.01,-13.988831 0.01,-13.988831 -11.6409,1.112553 -13.14923,17.0431 -30.64464,20.474028 -41.28351,8.095907 -5.80109,-6.74946 -5.73772,-6.898944 1.73353,-4.090837 20.50581,7.70717 21.71302,7.742653 21.71302,0.638146 0,-14.116276 -22.45127,-41.166316 -26.19848,-31.564817 -12.34948,31.642984 -40.17944,44.386398 -52.89887,24.222501 -6.77642,-10.74248 -4.08322,-11.48579 6.28889,-1.735741 16.56662,15.573051 21.54035,0.604895 7.44962,-22.419176 -10.00062,-16.340873 -30.65199,-8.803213 -30.76033,11.227421 -0.10139,18.764899 -28.54164,30.224819 -37.32564,15.040286 -3.51899,-6.083141 -4.46884,-6.083141 -9.15415,0 -11.20923,14.55349 -27.13944,4.23449 -37.21817,-24.108524 -10.53258,-29.619403 -24.90545,-27.198299 -24.90545,4.19531 0,23.916877 -7.02723,30.795394 -11.86253,11.611441 -5.37764,-21.335657 -14.93122,-32.772181 -21.66399,-25.933814 -24.16301,24.541907 -40.600233,27.586684 -51.933658,9.62001 -6.404503,-10.15292 -2.133878,-11.532437 6.54543,-2.114317 9.920362,10.764797 21.072958,7.923547 36.475648,-9.292566 11.68253,-13.057924 16.03856,-15.532343 22.99752,-13.063561 12.66648,4.493623 16.84298,4.139267 27.84814,-2.362612 13.19788,-7.797363 31.89368,3.449199 31.95993,19.225606 0.16169,38.472077 19.6832,40.24204 25.95609,2.353364 4.1008,-24.769133 28.02579,-32.355515 37.00271,-11.733237 4.91786,11.297586 10.22889,10.486353 19.62791,-2.99802 8.71364,-12.501143 22.08064,-3.582693 34.11113,22.758949 6.82264,14.938554 8.87944,13.801767 16.63966,-9.196506 8.48496,-25.146111 9.31227,-25.046451 29.22466,3.521013 16.41261,23.546507 16.41261,23.546507 29.21629,7.245493 21.06171,-26.81474 50.12405,-25.250352 50.12405,2.698094 0,13.844766 6.44931,14.291667 26.1176,1.80981 7.97431,-5.060647 16.10217,-8.434407 18.06191,-7.497244 3.6967,1.767841 -35.18792,25.598648 -41.76924,25.598648 -2.05048,0 -6.57225,4.833796 -10.04839,10.74174 -8.78242,14.926441 -16.98227,17.178141 -29.61663,8.132801 z m 22.38913,-8.584974 c 5.57674,-7.240548 5.41807,-7.686611 -4.40854,-12.394938 -11.57547,-5.546303 -16.14551,-0.792383 -11.41884,11.878344 3.73926,10.023808 8.38799,10.175558 15.82738,0.516594 z M 266.38805,70.573622 c 8.34109,-10.829677 6.97846,-14.885674 -5.00095,-14.885674 -11.68821,0 -15.17413,4.311347 -12.2687,15.173817 2.44918,9.15655 10.09348,9.02902 17.26965,-0.288034 z m 176.27461,-8.35019 c 0,-14.130387 -8.12809,-19.068304 -14.97433,-9.097078 -4.85155,7.066018 -4.79754,7.970608 0.83338,13.958865 9.00546,9.57689 14.14095,7.811279 14.14095,-4.861787 z M 268.9587,47.638265 c 0,-12.71763 -9.30553,-20.876113 -13.95839,-12.23778 -6.76098,12.552313 -5.79588,15.83736 4.65279,15.83736 5.11808,0 9.3056,-1.6198 9.3056,-3.59958 z"
       id="path203" />
  </g>
</svg>
